HIERARCHY
ROOT root
{
	OFFSET 0.000000 0.000000 0.000000
	CHANNELS 6 Xposition Yposition Zposition Zrotation Yrotation Xrotation
	JOINT lhip
	{
		OFFSET 0.058581 -0.082280 -0.017664
		CHANNELS 3 Zrotation Yrotation Xrotation
		JOINT lknee
		{
			OFFSET 0.043451 -0.386469 0.008037
			CHANNELS 3 Zrotation Yrotation Xrotation
			JOINT lankle
			{
				OFFSET -0.014790 -0.426874 -0.037428
				CHANNELS 3 Zrotation Yrotation Xrotation
				JOINT ltoe
				{
					OFFSET 0.041054 -0.060286 0.122042
					CHANNELS 3 Zrotation Yrotation Xrotation
					End Site
					{
						OFFSET 0.000000 0.000000 0.000000
					}
				}
			}
		}
	}
	JOINT rhip
	{
		OFFSET -0.060310 -0.090513 -0.013543
		CHANNELS 3 Zrotation Yrotation Xrotation
		JOINT rknee
		{
			OFFSET -0.043257 -0.383688 -0.004843
			CHANNELS 3 Zrotation Yrotation Xrotation
			JOINT rankle
			{
				OFFSET 0.019056 -0.420046 -0.034562
				CHANNELS 3 Zrotation Yrotation Xrotation
				JOINT rtoe
				{
					OFFSET -0.034840 -0.062106 0.130323
					CHANNELS 3 Zrotation Yrotation Xrotation
					End Site
					{
						OFFSET 0.000000 0.000000 0.000000
					}
				}
			}
		}
	}
	JOINT lowerback
	{
		OFFSET 0.004439 0.124404 -0.038385
		CHANNELS 3 Zrotation Yrotation Xrotation
		JOINT upperback
		{
			OFFSET 0.004488 0.137956 0.026820
			CHANNELS 3 Zrotation Yrotation Xrotation
			JOINT chest
			{
				OFFSET -0.002265 0.056032 0.002855
				CHANNELS 3 Zrotation Yrotation Xrotation
				JOINT lowerneck
				{
					OFFSET -0.013390 0.211636 -0.033468
					CHANNELS 3 Zrotation Yrotation Xrotation
					JOINT upperneck
					{
						OFFSET 0.010113 0.088937 0.050410
						CHANNELS 3 Zrotation Yrotation Xrotation
						End Site
						{
							OFFSET 0.000000 0.000000 0.000000
						}
					}
				}
				JOINT lclavicle
				{
					OFFSET 0.071702 0.114000 -0.018898
					CHANNELS 3 Zrotation Yrotation Xrotation
					JOINT lshoulder
					{
						OFFSET 0.122921 0.045205 -0.019046
						CHANNELS 3 Zrotation Yrotation Xrotation
						JOINT lelbow
						{
							OFFSET 0.255332 -0.015649 -0.022946
							CHANNELS 3 Zrotation Yrotation Xrotation
							JOINT lwrist
							{
								OFFSET 0.265709 0.012698 -0.007375
								CHANNELS 3 Zrotation Yrotation Xrotation
								End Site
								{
									OFFSET 0.000000 0.000000 0.000000
								}
							}
						}
					}
				}
				JOINT rclavicle
				{
					OFFSET -0.082954 0.112472 -0.023707
					CHANNELS 3 Zrotation Yrotation Xrotation
					JOINT rshoulder
					{
						OFFSET -0.113228 0.046853 -0.008472
						CHANNELS 3 Zrotation Yrotation Xrotation
						JOINT relbow
						{
							OFFSET -0.260127 -0.014369 -0.031269
							CHANNELS 3 Zrotation Yrotation Xrotation
							JOINT rwrist
							{
								OFFSET -0.269108 0.006794 -0.006027
								CHANNELS 3 Zrotation Yrotation Xrotation
								End Site
								{
									OFFSET 0.000000 0.000000 0.000000
								}
							}
						}
					}
				}
			}
		}
	}
}
MOTION
Frames: 16
Frame Time: 0.033333
0.022702 0.682303 1.011760 29.419354 -3.012045 86.950835 3.130412 4.790722 4.660377 -0.832918 -7.304736 -0.184672 -1.121749 2.483662 -6.665294 0.000000 -0.000000 0.000000 -7.098243 -5.390305 8.136232 -0.248749 5.946071 0.759644 5.327628 3.526686 -13.377489 0.000000 -0.000000 0.000000 2.816857 3.892319 2.268207 -3.655840 0.705796 5.454561 -5.023935 2.916089 -0.608616 -1.301466 11.737726 1.471527 0.035547 7.110439 11.857853 -31.266147 0.645240 -0.226278 -51.444841 -9.917554 5.552996 15.324036 -21.414469 -9.906883 6.950692 -8.605820 -4.430487 26.694927 -0.872872 2.586309 64.139963 -2.240852 9.493016 -21.941609 22.744563 -16.699620 8.311113 9.290065 -14.945305 
0.021488 0.686415 1.006270 29.237896 -2.597467 87.050617 3.035456 4.394396 5.938509 0.353084 -7.407815 -3.159007 -0.515530 2.880677 -8.579728 0.000000 -0.000000 0.000000 -6.820345 -6.006203 7.376456 -0.481469 3.490706 2.185095 5.190002 -0.226607 -14.250492 0.000000 -0.000000 0.000000 3.027958 3.302893 2.170688 -3.728134 0.906730 5.630516 -4.294889 3.070904 -0.986503 -1.841301 11.532008 0.301990 0.443631 8.591256 11.055103 -31.305207 0.969241 0.198512 -51.919162 -9.512637 6.006793 15.530453 -26.069449 -10.618447 0.623473 -9.811974 -8.350341 26.513220 -0.516273 2.820636 61.274114 -2.852327 9.973169 -19.014468 26.752400 -13.134193 18.109399 8.942631 -14.078125 
0.018682 0.690353 0.996192 29.593034 -2.847180 86.780753 2.732168 4.106151 6.755037 0.359131 -7.064629 -4.716232 0.676595 2.981333 -9.341641 0.000000 -0.000000 0.000000 -6.966949 -6.934334 7.398078 -1.184535 0.969495 2.986289 5.055649 -3.952474 -14.736507 0.000000 -0.000000 0.000000 1.988739 3.220787 3.266117 -3.374019 0.767959 5.241697 -3.368010 2.360041 -1.294792 -1.775641 11.431830 -0.933278 -0.114720 9.961771 9.896840 -31.982194 0.889966 1.533205 -50.516313 -9.085538 6.815293 14.391187 -32.180136 -10.219744 -2.565209 -13.123003 -12.666147 26.976852 -0.078236 2.849381 58.149609 -3.200269 11.533730 -16.907421 30.919008 -11.282663 20.257977 9.170715 -11.965423 
0.013055 0.693987 0.988652 31.358466 -3.183860 85.682728 3.586754 3.937203 6.993320 -0.692674 -7.923306 -4.456555 -1.524296 1.488110 -8.967047 0.000000 -0.000000 0.000000 -7.370197 -8.117579 8.703611 -1.928093 -1.935488 3.281352 5.258297 -7.488257 -14.529607 0.000000 -0.000000 0.000000 0.394413 2.872408 5.090359 -2.665106 -0.517747 5.665145 -2.658796 0.721551 -1.561470 0.141234 13.045565 -2.570315 -1.858022 11.211599 9.308925 -35.932673 -0.749143 3.522644 -42.932180 -8.245990 7.998961 9.852804 -39.529827 -6.160688 -5.937924 -17.779476 -12.287278 31.384947 1.836741 2.365958 52.737435 -1.610869 13.809695 -15.860445 31.399113 -11.794846 19.096299 10.429448 -7.684311 
0.012065 0.695205 0.989713 32.029737 -3.179589 85.677035 3.598282 3.776548 6.363640 -0.808787 -8.362643 -3.796196 -1.686211 1.257928 -9.002056 0.000000 -0.000000 0.000000 -7.343572 -7.829677 8.647595 -1.794705 -2.312078 3.421167 5.422672 -7.628107 -14.503777 0.000000 -0.000000 0.000000 0.202499 2.586029 4.523456 -2.404858 -1.116045 6.009779 -2.786237 0.425656 -1.390134 0.549625 13.727784 -1.940498 -1.936939 11.183795 9.119764 -35.824886 -1.368917 4.006309 -42.282524 -8.278463 8.832553 8.156838 -39.226427 -2.937855 -6.377004 -18.762652 -10.430331 31.872300 2.238888 2.337861 53.110015 -0.269509 13.810294 -16.601392 29.135987 -11.807141 18.618191 10.880113 -6.413628 
0.010865 0.698806 0.993347 32.536596 -3.310535 86.539942 2.591659 1.915976 5.174550 -0.295357 -9.740011 -3.996585 1.256087 5.229822 -7.836074 0.000000 -0.000000 0.000000 -7.248705 -6.972594 6.614209 -1.464478 -3.129890 4.783130 3.644336 -8.422391 -13.460955 0.000000 -0.000000 0.000000 -0.263195 2.764160 1.616696 -1.980401 -2.421093 9.690607 -2.657370 0.016448 -4.088610 -0.592936 13.972745 0.578531 1.025426 11.542441 8.763050 -33.610617 -3.224305 3.019370 -44.584111 -6.427450 10.404333 6.042007 -36.391515 1.271309 -10.100448 -19.079527 -1.486288 30.548746 4.351789 2.494659 56.480214 -0.082131 11.097723 -18.836379 25.038298 -11.985327 11.431853 13.874836 -5.652897 
0.008023 0.702013 0.996132 32.059496 -3.188294 86.418960 2.378825 2.081595 5.189015 0.203664 -9.559555 -3.912645 1.601179 5.786115 -8.455887 0.000000 -0.000000 0.000000 -6.889859 -6.766009 6.046057 -1.463270 -3.141684 5.107506 3.717384 -8.982554 -13.390021 0.000000 -0.000000 0.000000 -0.378640 3.183918 1.606526 -1.750552 -2.320956 9.578731 -2.487866 0.474092 -4.421235 -0.382038 13.569256 1.679491 1.642651 10.462453 9.307306 -31.539438 -4.425764 3.711761 -46.610754 -7.046419 12.177281 4.668389 -34.037997 5.202850 -15.718084 -18.001008 0.406094 29.230810 4.768630 2.325816 60.494035 0.086576 9.270869 -23.326745 22.566046 -16.946555 10.046628 12.480973 -9.362410 
0.004848 0.703764 0.996428 31.097323 -3.095293 86.139107 2.700886 2.386490 5.717751 0.047868 -9.275660 -4.036140 1.947452 6.351442 -9.253037 0.000000 -0.000000 0.000000 -6.803190 -6.770036 6.226992 -1.214432 -2.635091 4.592539 3.605003 -8.963939 -13.297436 0.000000 -0.000000 0.000000 -0.554523 3.849029 2.003138 -1.598334 -1.951882 9.203185 -2.140469 0.698592 -4.557623 -0.509466 13.341166 2.525905 2.166501 10.101065 9.628940 -31.078400 -5.117125 4.523198 -46.845032 -7.154668 13.025206 3.764194 -33.517995 7.440985 -19.923363 -17.435304 -0.280013 28.887084 5.072984 2.787887 61.936780 0.531727 8.022884 -24.639065 21.563016 -21.527790 10.506880 11.945130 -15.679163 
0.001975 0.704586 0.995958 30.128485 -2.940925 86.253021 3.096920 2.608968 5.626278 -0.071208 -8.667505 -3.828449 2.362741 6.798927 -9.417653 0.000000 -0.000000 0.000000 -6.759684 -6.690444 6.118861 -1.145393 -1.638311 4.326185 3.832703 -8.148599 -13.366186 0.000000 -0.000000 0.000000 -0.611044 4.290399 1.753587 -1.379900 -1.753222 9.442456 -1.984629 0.703563 -4.814498 -0.492534 13.206308 2.572529 1.995981 10.381018 9.752774 -32.079650 -4.895216 4.565157 -45.321529 -6.743863 13.361977 2.459026 -33.698196 8.392241 -22.471140 -17.815136 -1.227408 29.943871 5.172162 2.838436 60.639042 1.194438 8.016462 -23.424792 21.363877 -23.503106 11.870762 12.791097 -18.655874 
0.000616 0.705432 0.995276 29.202304 -2.829513 86.037061 3.249131 2.841439 5.956017 -0.025593 -8.479286 -3.925815 2.591951 6.846281 -8.793576 0.000000 -0.000000 0.000000 -6.876425 -6.343084 6.164398 -0.749588 -1.116587 4.332473 3.677076 -7.844193 -13.508824 0.000000 -0.000000 0.000000 -0.204806 4.324096 1.970778 -1.361005 -1.528646 9.677420 -2.104541 0.693026 -4.981202 -0.427058 13.307909 2.162489 1.538145 11.072236 10.091039 -33.495273 -4.380898 4.372526 -43.737530 -6.011190 12.947515 1.836694 -33.807769 8.099690 -22.307592 -17.996432 -1.312290 30.965089 5.188058 2.809446 58.579662 1.368115 8.896406 -21.697496 23.337159 -22.175387 12.900323 13.314314 -17.246395 
0.000338 0.705673 0.995044 28.810578 -2.752361 85.851573 3.182923 2.956893 6.110034 0.202558 -8.193476 -3.901121 2.769175 6.721937 -7.745738 0.000000 -0.000000 0.000000 -6.830559 -6.094529 6.098492 -0.711152 -1.122043 4.671555 3.499483 -7.612461 -13.548986 0.000000 -0.000000 0.000000 0.252152 4.061357 1.669892 -1.408206 -1.619166 10.110386 -2.381723 0.659166 -4.912423 -0.526421 13.763975 2.750890 1.289803 11.589332 9.881199 -33.912838 -4.033184 4.250826 -43.915595 -5.235541 11.995128 2.894176 -32.888799 5.237389 -20.186844 -18.014590 -1.089219 31.251915 5.279251 2.714345 57.461737 1.274917 9.847756 -20.510597 26.109243 -19.182417 13.148568 13.677627 -12.757408 
-0.000002 0.705497 0.995203 28.901752 -2.682553 85.776721 3.266499 3.043728 6.098225 0.266144 -7.880362 -3.923820 2.545186 6.489090 -6.974735 0.000000 -0.000000 0.000000 -6.603092 -5.989537 6.002581 -0.923062 -1.376127 5.010083 3.400527 -7.545625 -13.570351 0.000000 -0.000000 0.000000 0.402639 3.657391 1.332788 -1.370476 -1.824681 10.155210 -2.451331 0.600675 -4.672021 -0.648704 14.039579 3.323834 1.243474 11.749959 10.040295 -33.671831 -3.802204 4.291118 -45.438718 -4.415422 11.101787 5.179230 -31.304098 1.697968 -16.905783 -17.442497 -1.266028 30.920673 5.337713 3.031100 57.096718 0.881055 10.630543 -19.849560 29.286857 -16.332236 12.231204 13.850349 -8.656647 
-0.000599 0.705540 0.995332 29.037709 -2.581171 85.641768 3.440696 3.319634 6.294945 0.350509 -7.830586 -4.168454 2.164775 6.243949 -6.617757 0.000000 -0.000000 0.000000 -6.380733 -6.172241 6.137914 -1.138797 -1.352651 4.982367 3.331822 -7.380052 -13.439802 0.000000 -0.000000 0.000000 0.562070 3.401172 1.695630 -1.353692 -1.922014 9.386778 -2.424378 0.420918 -4.399342 -0.839871 13.506068 3.507926 1.213540 12.082469 10.613015 -33.641947 -3.415331 4.258057 -46.840274 -3.574080 10.643046 7.710857 -29.696336 -1.597323 -12.535635 -16.350854 -2.392135 30.505086 5.048149 2.931825 56.756484 0.320653 11.289586 -18.548012 31.599390 -14.632198 11.282093 14.178059 -7.363551 
-0.001099 0.705188 0.995154 29.155368 -2.658585 85.611461 3.427168 3.656095 6.490373 0.381447 -7.849422 -4.505494 1.900110 6.157765 -6.420299 0.000000 -0.000000 0.000000 -6.412107 -6.314715 6.359475 -1.212257 -1.308778 4.641015 3.209837 -7.345834 -13.197524 0.000000 -0.000000 0.000000 0.679373 3.194711 1.768270 -1.494582 -1.980692 8.949787 -2.526615 0.354071 -4.282460 -0.909981 12.507080 3.548394 1.056529 12.208266 10.846594 -33.769165 -2.937069 4.105020 -47.507484 -2.982063 10.420336 9.226803 -27.984872 -4.307962 -9.913479 -15.058622 -4.098599 30.234419 4.639219 2.863381 56.780923 0.084810 11.779694 -16.853893 32.812147 -14.338933 11.015486 14.373631 -8.930082 
-0.001058 0.704339 0.994834 29.219319 -2.678821 85.721178 3.394078 3.738841 6.577884 0.456672 -7.869388 -4.806783 1.813535 6.246322 -6.267504 0.000000 -0.000000 0.000000 -6.350422 -6.170279 6.418835 -1.263092 -1.355190 4.411989 3.168385 -7.449878 -13.076088 0.000000 -0.000000 0.000000 0.890079 3.201845 1.595425 -1.622375 -1.858095 8.574169 -2.619492 0.250522 -4.139333 -0.926850 12.107523 3.620940 1.046263 12.148499 11.073826 -33.963332 -2.435595 4.160836 -47.691126 -2.803762 10.030361 9.921390 -26.183955 -5.562887 -9.849374 -14.534135 -5.124693 29.980497 4.177551 2.688742 57.323264 -0.182856 11.869455 -16.616939 32.432154 -14.643536 11.075493 14.629670 -10.087399 
-0.000888 0.703453 0.994670 29.372782 -2.682063 85.763225 3.406568 3.639566 6.597143 0.486228 -7.843561 -4.846944 1.668192 6.239930 -6.184889 0.000000 -0.000000 0.000000 -6.348275 -6.131778 6.603131 -1.200775 -1.457758 4.118541 3.197789 -7.532934 -12.993888 0.000000 -0.000000 0.000000 1.067518 3.155801 1.480338 -1.692618 -1.901154 8.434736 -2.701888 0.289060 -4.165565 -0.922971 11.786318 3.478306 0.965628 11.721138 11.132148 -33.969225 -2.142677 4.178241 -47.685579 -2.630172 9.710521 9.764553 -24.472658 -5.647508 -11.083412 -14.423904 -5.029642 29.790906 3.829342 2.756281 57.750124 -0.517391 11.545178 -17.335571 31.649026 -14.807649 11.013995 14.196477 -9.864738 
